<svg xmlns="http://www.w3.org/2000/svg" viewBox="0 0 16 16"><path d="M16,4.7a5.61,5.61,0,0,0-.37-1.94,3.91,3.91,0,0,0-.92-1.42A4,4,0,0,0,13.27.42,6.12,6.12,0,0,0,11.33.05C10.47,0,10.2,0,8,0S5.59,0,4.73.05A5.61,5.61,0,0,0,2.79.42a3.83,3.83,0,0,0-1.42.92A4,4,0,0,0,.45,2.76,5.86,5.86,0,0,0,.08,4.7,29.66,29.66,0,0,0,0,8v3.3a5.87,5.87,0,0,0,.38,1.94,4,4,0,0,0,.92,1.42,3.91,3.91,0,0,0,1.42.92,5.78,5.78,0,0,0,2,.42H8c2.15,0,2.44,0,3.29-.05a5.63,5.63,0,0,0,2-.37,4.14,4.14,0,0,0,2.34-2.34A6.13,6.13,0,0,0,16,11.3V4.7Zm-1.44,6.54a4.13,4.13,0,0,1-.27,1.48,2.65,2.65,0,0,1-1.52,1.52,4.47,4.47,0,0,1-1.49.28H4.82a4.37,4.37,0,0,1-1.48-.28,2.45,2.45,0,0,1-.92-.6,2.45,2.45,0,0,1-.6-.92,4.13,4.13,0,0,1-.27-1.48c0-.84-.05-1.1-.05-3.23s0-2.39.05-3.23A4.2,4.2,0,0,1,1.8,3.29a2.45,2.45,0,0,1,.6-.92,2.42,2.42,0,0,1,.92-.59A4.14,4.14,0,0,1,4.8,1.5c.85,0,1.1-.05,3.24-.05s2.39,0,3.23.05a4.14,4.14,0,0,1,1.48.28,2.31,2.31,0,0,1,.92.59,2.45,2.45,0,0,1,.6.92,4.22,4.22,0,0,1,.27,1.49c0,.84.05,1.09.05,3.23s0,2.38-.05,3.23Z"/><path d="M8,3.89A4.11,4.11,0,1,0,12.11,8,4.11,4.11,0,0,0,8,3.89Zm0,6.78A2.67,2.67,0,1,1,10.67,8,2.68,2.68,0,0,1,8,10.67Z"/><path d="M13.26,3.73a1,1,0,1,1-1-1A1,1,0,0,1,13.26,3.73Z"/></svg>