<?xml version="1.0" encoding="utf-8"?>
<!-- Generator: Adobe Illustrator 26.4.1, SVG Export Plug-In . SVG Version: 6.00 Build 0)  -->
<svg version="1.1" id="Слой_1" xmlns="http://www.w3.org/2000/svg" xmlns:xlink="http://www.w3.org/1999/xlink" x="0px" y="0px"
	 viewBox="0 0 35 35" style="enable-background:new 0 0 35 35;" xml:space="preserve">
<style type="text/css">
	.st0{fill:#FFFFFF;}
</style>
<circle cx="17.5" cy="17.5" r="17.5"/>
<path class="st0" d="M23.1,10.5H11.9c-0.8,0-1.4,0.6-1.4,1.4v11.2c0,0.8,0.6,1.4,1.4,1.4h11.2c0.8,0,1.4-0.6,1.4-1.4V11.9
	C24.5,11.1,23.9,10.5,23.1,10.5z M14.7,22.4h-2.1v-6.3h2.1V22.4z M13.6,14.9c-0.7,0-1.3-0.6-1.3-1.3c0-0.7,0.6-1.3,1.3-1.3
	c0.7,0,1.3,0.6,1.3,1.3C14.9,14.4,14.4,14.9,13.6,14.9z M22.4,22.4h-2.1v-3.7c0-0.6-0.5-1-1-1s-1,0.5-1,1v3.7h-2.1v-6.3h2.1v0.8
	c0.3-0.6,1.1-1,1.8-1c1.3,0,2.4,1.1,2.4,2.4V22.4z"/>
</svg>
