<?xml version="1.0" encoding="utf-8"?>
<!-- Generator: Adobe Illustrator 26.4.1, SVG Export Plug-In . SVG Version: 6.00 Build 0)  -->
<svg version="1.1" id="Слой_1" xmlns="http://www.w3.org/2000/svg" xmlns:xlink="http://www.w3.org/1999/xlink" x="0px" y="0px"
	 viewBox="0 0 35 35" style="enable-background:new 0 0 35 35;" xml:space="preserve">
<style type="text/css">
	.st0{fill:#FFFFFF;}
</style>
<circle cx="17.5" cy="17.5" r="17.5"/>
<path class="st0" d="M27.5,11.3c-0.74,0.33-1.54,0.54-2.36,0.65c0.85-0.51,1.5-1.31,1.8-2.27c-0.79,0.47-1.67,0.81-2.6,0.99
	c-0.75-0.8-1.82-1.3-3-1.3c-2.27,0-4.1,1.84-4.1,4.1c0,0.33,0.03,0.64,0.1,0.94c-3.41-0.17-6.43-1.8-8.45-4.29
	c-0.35,0.61-0.56,1.32-0.56,2.07c0,1.42,0.73,2.68,1.82,3.41c-0.66-0.01-1.31-0.2-1.85-0.51c0,0.01,0,0.03,0,0.05
	c0,1.99,1.42,3.65,3.28,4.03c-0.33,0.09-0.7,0.14-1.07,0.14c-0.26,0-0.53-0.01-0.78-0.07c0.53,1.62,2.04,2.82,3.83,2.86
	c-1.4,1.09-3.17,1.75-5.08,1.75c-0.34,0-0.66-0.01-0.98-0.06c1.82,1.17,3.97,1.84,6.29,1.84c7.54,0,11.67-6.25,11.67-11.67
	c0-0.18-0.01-0.36-0.01-0.53C26.26,12.85,26.94,12.13,27.5,11.3z"/>
</svg>
