<svg id="Слой_1" data-name="Слой 1" xmlns="http://www.w3.org/2000/svg" xmlns:xlink="http://www.w3.org/1999/xlink" viewBox="0 0 2118.6 1005.58"><defs><style>.cls-1,.cls-2,.cls-3,.cls-4{fill:none;}.cls-2,.cls-3,.cls-4,.cls-5{stroke:#1d1d1b;stroke-width:0.3px;}.cls-2,.cls-4,.cls-5{opacity:0.5;}.cls-3,.cls-4{stroke-linecap:square;}.cls-5{fill:red;}.cls-6{opacity:0.15;fill:url(#_111);}</style><pattern id="_111" data-name="111" width="36" height="36" patternTransform="translate(46 53)" patternUnits="userSpaceOnUse" viewBox="0 0 36 36"><rect class="cls-1" width="36" height="36"/><line class="cls-2" x1="43.95" y1="36.07" x2="27.95" y2="52.07"/><line class="cls-3" x1="27.95" y1="36.07" x2="63.95" y2="36.07"/><line class="cls-4" x1="27.95" y1="72.07" x2="63.95" y2="36.07"/><line class="cls-4" x1="63.95" y1="72.07" x2="27.95" y2="36.07"/><line class="cls-5" x1="7.95" y1="36.07" x2="27.95" y2="56.07"/><line class="cls-2" x1="7.95" y1="36.07" x2="-8.05" y2="52.07"/><line class="cls-3" x1="-8.05" y1="36.07" x2="27.95" y2="36.07"/><line class="cls-3" x1="27.95" y1="36.07" x2="27.95" y2="72.07"/><line class="cls-4" x1="-8.05" y1="72.07" x2="27.95" y2="36.07"/><line class="cls-4" x1="27.95" y1="72.07" x2="-8.05" y2="36.07"/><line class="cls-2" x1="27.95" y1="16.07" x2="47.95" y2="36.07"/><line class="cls-2" x1="43.95" y1="0.07" x2="27.95" y2="16.07"/><line class="cls-3" x1="27.95" y1="0.07" x2="63.95" y2="0.07"/><line class="cls-3" x1="27.95" y1="36.07" x2="63.95" y2="36.07"/><line class="cls-4" x1="27.95" y1="36.07" x2="63.95" y2="0.07"/><line class="cls-4" x1="63.95" y1="36.07" x2="27.95" y2="0.07"/><line class="cls-5" x1="7.95" y1="0.07" x2="27.95" y2="20.07"/><line class="cls-2" x1="27.95" y1="20.07" x2="11.95" y2="36.07"/><line class="cls-2" x1="-8.05" y1="16.07" x2="11.95" y2="36.07"/><line class="cls-2" x1="7.95" y1="0.07" x2="-8.05" y2="16.07"/><line class="cls-3" x1="-8.05" y1="0.07" x2="27.95" y2="0.07"/><line class="cls-3" x1="27.95" y1="0.07" x2="27.95" y2="36.07"/><line class="cls-3" x1="-8.05" y1="36.07" x2="27.95" y2="36.07"/><line class="cls-4" x1="-8.05" y1="36.07" x2="27.95" y2="0.07"/><line class="cls-4" x1="27.95" y1="36.07" x2="-8.05" y2="0.07"/><line class="cls-2" x1="27.95" y1="-19.93" x2="47.95" y2="0.07"/><line class="cls-3" x1="27.95" y1="0.07" x2="63.95" y2="0.07"/><line class="cls-4" x1="27.95" y1="0.07" x2="63.95" y2="-35.93"/><line class="cls-4" x1="63.95" y1="0.07" x2="27.95" y2="-35.93"/><line class="cls-2" x1="27.95" y1="-15.93" x2="11.95" y2="0.07"/><line class="cls-2" x1="-8.05" y1="-19.93" x2="11.95" y2="0.07"/><line class="cls-3" x1="27.95" y1="-35.93" x2="27.95" y2="0.07"/><line class="cls-3" x1="-8.05" y1="0.07" x2="27.95" y2="0.07"/><line class="cls-4" x1="-8.05" y1="0.07" x2="27.95" y2="-35.93"/><line class="cls-4" x1="27.95" y1="0.07" x2="-8.05" y2="-35.93"/></pattern></defs><rect class="cls-6" width="2118.6" height="1005.58"/></svg>