<svg width="20px" xmlns="http://www.w3.org/2000/svg" viewBox="0 0 20 16.24">
<path fill="#FFF" d="M20,1.91a8.45,8.45,0,0,1-2.36.65A4,4,0,0,0,19.44.29a7.84,7.84,0,0,1-2.6,1A4.1,4.1,0,0,0,9.75,4.11,4.73,4.73,0,0,0,9.84,5,11.58,11.58,0,0,1,1.39.73,4.24,4.24,0,0,0,.83,2.81a4.1,4.1,0,0,0,1.82,3.4A3.88,3.88,0,0,1,.8,5.71h0a4.1,4.1,0,0,0,3.29,4A4,4,0,0,1,3,9.92a3.43,3.43,0,0,1-.78-.07A4.15,4.15,0,0,0,6.06,12.7,8.24,8.24,0,0,1,1,14.45a5.6,5.6,0,0,1-1-.06,11.33,11.33,0,0,0,6.29,1.84A11.57,11.57,0,0,0,18,4.79V4A8,8,0,0,0,20,1.91Z"/>
</svg>
