<svg id="Слой_1" data-name="Слой 1" xmlns="http://www.w3.org/2000/svg" xmlns:xlink="http://www.w3.org/1999/xlink" viewBox="0 0 284.32 32"><defs><style>.cls-1{fill:url(#linear-gradient);}.cls-2{fill:url(#linear-gradient-2);}.cls-3{fill:url(#linear-gradient-3);}.cls-4{fill:#fff;}</style><linearGradient id="linear-gradient" x1="0.85" y1="0.85" x2="31.15" y2="31.15" gradientUnits="userSpaceOnUse"><stop offset="0" stop-color="#464451"/><stop offset="0.5" stop-color="#2b2735"/><stop offset="1" stop-color="#130b15"/></linearGradient><linearGradient id="linear-gradient-2" x1="1.78" y1="1.78" x2="30.22" y2="30.22" gradientUnits="userSpaceOnUse"><stop offset="0" stop-color="#fefefe"/><stop offset="1" stop-color="#97949b"/></linearGradient><linearGradient id="linear-gradient-3" x1="8.16" y1="6.97" x2="23.84" y2="22.64" gradientUnits="userSpaceOnUse"><stop offset="0" stop-color="#f2f2f2"/><stop offset="1" stop-color="#b6b6b6"/></linearGradient></defs><g id="Image_Logo" data-name="Image Logo"><rect id="Backdrop" class="cls-1" width="32" height="32" rx="2.91"/><path id="Stripe" class="cls-2" d="M29,1.27H3A1.74,1.74,0,0,0,1.27,3V29A1.74,1.74,0,0,0,3,30.73H29A1.75,1.75,0,0,0,30.73,29V3A1.75,1.75,0,0,0,29,1.27Zm.43,27.65a.5.5,0,0,1-.5.5H3.08a.5.5,0,0,1-.5-.5V3.08a.5.5,0,0,1,.5-.5H28.92a.5.5,0,0,1,.5.5Z" transform="translate(0)"/><path id="U" class="cls-3" d="M18.55,24.77c4.44,0,6.22-2.49,6.22-5.49V8.4a1.14,1.14,0,0,0-1.21-1.17H18V8.56a1.17,1.17,0,0,0,1.18,1.17h3.24V19c0,3.21-2.42,3.41-3.87,3.41h-5c-1.45,0-3.87-.2-3.87-3.41V9.73h4.42V8.4a1.17,1.17,0,0,0-1.18-1.17H8.44A1.14,1.14,0,0,0,7.23,8.4V19.28c0,3,1.78,5.49,6.22,5.49Z" transform="translate(0)"/></g><path class="cls-4" d="M167.65,22.68a.83.83,0,0,1,.63.19,1.12,1.12,0,0,1,.17.7v1.51a1.1,1.1,0,0,1-.17.7.8.8,0,0,1-.63.2H167a.77.77,0,0,1-.61-.2,1,1,0,0,1-.19-.7V23.57a1,1,0,0,1,.19-.7.81.81,0,0,1,.61-.19Z" transform="translate(0)"/><path class="cls-4" d="M190,6.66c.6,0,.91.35.91,1L191.6,26h-2.2L188.77,8.7h-.53L184.39,23a.94.94,0,0,1-1,.84h-2a1,1,0,0,1-1-.84L176.59,8.7h-.5L175.49,26h-2.2L174,7.7c0-.69.35-1,.93-1h2.51c.46,0,.77.28.92.84l3.24,11.79q.19.64.33,1.29c.1.43.2.86.32,1.31h.45c.11-.45.22-.88.32-1.31s.21-.88.33-1.35L186.54,7.5a.93.93,0,0,1,1-.84Z" transform="translate(0)"/><path class="cls-4" d="M203.08,6.3a8.87,8.87,0,0,1,3.19.5,4.33,4.33,0,0,1,2.1,1.67,8.18,8.18,0,0,1,1.16,3.09,26.6,26.6,0,0,1,.36,4.76,26.52,26.52,0,0,1-.36,4.76,8.18,8.18,0,0,1-1.16,3.09,4.33,4.33,0,0,1-2.1,1.67,10.46,10.46,0,0,1-6.39,0,4.47,4.47,0,0,1-2.12-1.67,8,8,0,0,1-1.16-3.09,26.52,26.52,0,0,1-.36-4.76,26.6,26.6,0,0,1,.36-4.76,8,8,0,0,1,1.16-3.09,4.47,4.47,0,0,1,2.12-1.67A8.89,8.89,0,0,1,203.08,6.3Zm0,2.21a4.44,4.44,0,0,0-2.7.73,4,4,0,0,0-1.4,2.42,20.35,20.35,0,0,0-.41,4.66A20.43,20.43,0,0,0,199,21a4,4,0,0,0,1.4,2.43,5.34,5.34,0,0,0,5.39,0,4,4,0,0,0,1.4-2.43,20.43,20.43,0,0,0,.41-4.65,20.35,20.35,0,0,0-.41-4.66,4,4,0,0,0-1.4-2.42A4.43,4.43,0,0,0,203.08,8.51Z" transform="translate(0)"/><path class="cls-4" d="M219.71,6.32c.82,0,1.66.07,2.53.14a19.68,19.68,0,0,1,2.61.42l-.15,1.8-2.38-.1c-.87,0-1.71,0-2.51,0a14.5,14.5,0,0,0-1.59.07,2.55,2.55,0,0,0-1.09.33,1.51,1.51,0,0,0-.61.87,5.67,5.67,0,0,0-.19,1.67,3.62,3.62,0,0,0,.51,2.22,3.08,3.08,0,0,0,1.67.94l3.51,1a4.19,4.19,0,0,1,2.74,1.86,7.41,7.41,0,0,1,.74,3.57,9.16,9.16,0,0,1-.34,2.72,3.18,3.18,0,0,1-1,1.58,4.23,4.23,0,0,1-1.8.76,14.21,14.21,0,0,1-2.61.21q-.86,0-2.22-.09a21.11,21.11,0,0,1-3.14-.45L214.5,24l2.38.1c.6,0,1.12,0,1.55,0h1.36a7.75,7.75,0,0,0,2.09-.22A1.64,1.64,0,0,0,223,23a5,5,0,0,0,.31-2,5.25,5.25,0,0,0-.23-1.74,1.89,1.89,0,0,0-.71-.94,4.63,4.63,0,0,0-1.24-.52l-3.58-1A4.21,4.21,0,0,1,214.86,15a7,7,0,0,1-.76-3.53,8.66,8.66,0,0,1,.34-2.7,3,3,0,0,1,1-1.54,3.79,3.79,0,0,1,1.75-.69A16.27,16.27,0,0,1,219.71,6.32Z" transform="translate(0)"/><path class="cls-4" d="M236.37,6.32q1.11,0,1.89.06a14,14,0,0,1,1.45.18c.45.09.9.19,1.37.32l-.23,1.88-1.39-.14c-.42,0-.88-.06-1.36-.08s-1.06,0-1.73,0a4.35,4.35,0,0,0-2.66.73,4.11,4.11,0,0,0-1.39,2.43,21,21,0,0,0-.41,4.65,21,21,0,0,0,.41,4.65,4.11,4.11,0,0,0,1.39,2.43,4.35,4.35,0,0,0,2.66.73c1.07,0,2,0,2.69-.07a19.1,19.1,0,0,0,2.15-.24l.22,1.85a12.73,12.73,0,0,1-2.22.49,22.06,22.06,0,0,1-2.84.16,7.24,7.24,0,0,1-4-1,5.44,5.44,0,0,1-2.15-3.15,20.65,20.65,0,0,1-.67-5.88,20.65,20.65,0,0,1,.67-5.88,5.44,5.44,0,0,1,2.15-3.15A7.24,7.24,0,0,1,236.37,6.32Z" transform="translate(0)"/><path class="cls-4" d="M251.7,6.3a8.89,8.89,0,0,1,3.2.5A4.37,4.37,0,0,1,257,8.47a8,8,0,0,1,1.15,3.09,25.61,25.61,0,0,1,.37,4.76,25.54,25.54,0,0,1-.37,4.76A8,8,0,0,1,257,24.17a4.37,4.37,0,0,1-2.1,1.67,10.46,10.46,0,0,1-6.39,0,4.47,4.47,0,0,1-2.12-1.67,8,8,0,0,1-1.16-3.09,25.54,25.54,0,0,1-.37-4.76,25.61,25.61,0,0,1,.37-4.76,8,8,0,0,1,1.16-3.09,4.47,4.47,0,0,1,2.12-1.67A8.83,8.83,0,0,1,251.7,6.3Zm0,2.21a4.43,4.43,0,0,0-2.69.73,4,4,0,0,0-1.4,2.42,20.26,20.26,0,0,0-.42,4.66,20.34,20.34,0,0,0,.42,4.65A4,4,0,0,0,249,23.4a5.34,5.34,0,0,0,5.39,0A4.06,4.06,0,0,0,255.8,21a21,21,0,0,0,.41-4.65,20.94,20.94,0,0,0-.41-4.66,4.07,4.07,0,0,0-1.4-2.42A4.44,4.44,0,0,0,251.7,8.51Z" transform="translate(0)"/><path class="cls-4" d="M284.32,6.66l-3.51,18.59a1,1,0,0,1-.3.52.8.8,0,0,1-.57.21h-2.51a.81.81,0,0,1-.56-.21.85.85,0,0,1-.29-.55l-2.71-14.53c-.06-.37-.13-.74-.2-1.1s-.13-.73-.2-1.08H273c-.07.35-.13.72-.19,1.09s-.12.74-.19,1.09l-2.68,14.53a1,1,0,0,1-.31.55A.84.84,0,0,1,269,26h-2.53a.83.83,0,0,1-.56-.21.88.88,0,0,1-.29-.52L262.12,6.66h2.33l2.71,15.06c.07.36.13.74.17,1.14s.11.81.18,1.24h.58c.06-.43.13-.84.2-1.23s.13-.77.2-1.15l2.68-14.25a1,1,0,0,1,.29-.59.82.82,0,0,1,.56-.22h2.4a.8.8,0,0,1,.56.22,1.15,1.15,0,0,1,.3.59L278,21.72c.08.42.15.82.21,1.21s.1.78.14,1.17h.62c.05-.39.11-.78.15-1.19s.11-.78.18-1.16L282,6.66Z" transform="translate(0)"/><path class="cls-4" d="M55.28,6.66V18.59a12.5,12.5,0,0,1-.67,4.51,4.52,4.52,0,0,1-2.18,2.47,9,9,0,0,1-4.06.77,9.48,9.48,0,0,1-4.18-.77,4.54,4.54,0,0,1-2.26-2.47,12,12,0,0,1-.7-4.51V6.66h2.46V18.59a10.08,10.08,0,0,0,.43,3.29,2.94,2.94,0,0,0,1.45,1.73,5.81,5.81,0,0,0,2.68.52,5.81,5.81,0,0,0,2.68-.52,3,3,0,0,0,1.44-1.73,9.75,9.75,0,0,0,.45-3.29V6.66Z" transform="translate(0)"/><path class="cls-4" d="M66.28,6.44a13.17,13.17,0,0,1,3.78.43,3.36,3.36,0,0,1,2,1.53,6.18,6.18,0,0,1,.63,3.08A5.4,5.4,0,0,1,72,14.64a3.23,3.23,0,0,1-2.5,1.26V16a3.76,3.76,0,0,1,3,1.51,6.67,6.67,0,0,1,.85,3.64,6.31,6.31,0,0,1-.61,3.08,3.31,3.31,0,0,1-2,1.53,11.94,11.94,0,0,1-3.57.44l-2.84,0c-.79,0-1.53,0-2.2-.07S60.74,26,60,26l.39-2,2.34.06c1.15,0,2.49,0,4,0a8.64,8.64,0,0,0,2.42-.26,2,2,0,0,0,1.26-1,4.66,4.66,0,0,0,.38-2.1,5.52,5.52,0,0,0-.39-2.32,2.26,2.26,0,0,0-1.32-1.15,8.13,8.13,0,0,0-2.52-.36H60.38V15h6.18a8,8,0,0,0,2.23-.29,2,2,0,0,0,1.19-1,4.53,4.53,0,0,0,.36-2,4.23,4.23,0,0,0-.39-2,2,2,0,0,0-1.3-1,9.6,9.6,0,0,0-2.48-.25H61.79c-.55,0-1,0-1.39.07l-.39-2c.66-.07,1.28-.13,1.86-.15s1.24,0,1.94-.06Zm-3.86.22V26H60V6.66Z" transform="translate(0)"/><path class="cls-4" d="M80.93,6.63h2.81c1,0,1.88,0,2.8,0s1.82.07,2.68.13L89.1,8.73H81.35a1.68,1.68,0,0,0-1.28.44,2,2,0,0,0-.4,1.41V22.06a2.11,2.11,0,0,0,.4,1.43,1.65,1.65,0,0,0,1.28.45H89.1l.12,1.9c-.86.06-1.75.09-2.68.11l-2.8,0-2.81,0a3.82,3.82,0,0,1-2.7-.91,3.23,3.23,0,0,1-1-2.45V10a3.22,3.22,0,0,1,1-2.46A3.86,3.86,0,0,1,80.93,6.63Zm-3.22,8.15H88v2H77.71Z" transform="translate(0)"/><path class="cls-4" d="M99.72,6.41a10.91,10.91,0,0,1,3.61.49,3.51,3.51,0,0,1,2,1.69A7.44,7.44,0,0,1,106,12a8.16,8.16,0,0,1-.36,2.62,3.3,3.3,0,0,1-1.14,1.62,4.23,4.23,0,0,1-2.06.74v.14a2.52,2.52,0,0,1,.94.47,3.82,3.82,0,0,1,.86.92,4.19,4.19,0,0,1,.58,1.39l1.88,6.1H104l-1.71-6.05a3.13,3.13,0,0,0-1-1.55,2.57,2.57,0,0,0-1.6-.46l-3,0-2.1,0-1.35,0,.09-2h6.24a6.92,6.92,0,0,0,2.25-.34,2,2,0,0,0,1.19-1.1,5.41,5.41,0,0,0,.37-2.23,5.19,5.19,0,0,0-.37-2.2,2.08,2.08,0,0,0-1.19-1.08,6.79,6.79,0,0,0-2.25-.3l-4,0-2.26,0-.39-1.93c.71-.07,1.37-.13,2-.17s1.29-.06,2-.07Zm-4.23.25V26H93.05V6.66Z" transform="translate(0)"/><path class="cls-4" d="M123.21,6.66a1.72,1.72,0,0,1,.92.21,1,1,0,0,1,.44.59,1.74,1.74,0,0,1-.07.91l-6,17.61H116l5.43-15.79.28-.74c.1-.24.2-.47.31-.69H112.4l-.11-2.1Z" transform="translate(0)"/><path class="cls-4" d="M140.93,6.66a1.78,1.78,0,0,1,.93.21,1,1,0,0,1,.43.59,1.64,1.64,0,0,1-.07.91L136.2,26h-2.46l5.43-15.79c.09-.26.19-.51.28-.74a5.37,5.37,0,0,1,.31-.69h-9.64L130,6.66Z" transform="translate(0)"/><path class="cls-4" d="M158.66,6.66a1.72,1.72,0,0,1,.92.21,1,1,0,0,1,.43.59,1.55,1.55,0,0,1-.07.91l-6,17.61h-2.46l5.43-15.79.28-.74c.1-.24.2-.47.31-.69h-9.63l-.11-2.1Z" transform="translate(0)"/></svg>