<?xml version="1.0" encoding="utf-8"?>
<!-- Generator: Adobe Illustrator 26.4.1, SVG Export Plug-In . SVG Version: 6.00 Build 0)  -->
<svg version="1.1" id="Слой_1" xmlns="http://www.w3.org/2000/svg" xmlns:xlink="http://www.w3.org/1999/xlink" x="0px" y="0px"
	 viewBox="0 0 832 239" style="enable-background:new 0 0 832 239;" xml:space="preserve">
<style type="text/css">
	.st0{fill:#FFFFFF;}
	.st1{fill:#010101;}
</style>
<g>
	<path class="st0" d="M832.77,214.85c0,13.22-10.72,23.95-23.95,23.95c-0.01,0-0.02,0-0.02,0H24.14
		c-13.24,0.01-23.99-10.71-24.01-23.95V23.89C0.15,10.64,10.89-0.09,24.14-0.09h784.65c13.24,0,23.98,10.73,23.98,23.97
		c0,0,0,0,0,0.01L832.77,214.85L832.77,214.85z"/>
	<path class="st1" d="M832.77,214.85c0,13.22-10.72,23.95-23.95,23.95c-0.01,0-0.02,0-0.02,0H24.14
		c-13.24,0.01-23.99-10.71-24.01-23.95V23.89C0.15,10.64,10.89-0.09,24.14-0.09h784.65c13.24,0,23.98,10.73,23.98,23.97
		c0,0,0,0,0,0.01L832.77,214.85L832.77,214.85z"/>
	<path class="st0" d="M188.99,121.6c-0.18-19.71,16.14-29.3,16.89-29.74c-9.24-13.47-23.57-15.31-28.6-15.46
		c-12.03-1.27-23.7,7.2-29.83,7.2c-6.25,0-15.69-7.07-25.86-6.87c-13.09,0.2-25.33,7.78-32.05,19.54
		c-13.86,23.99-3.52,59.24,9.76,78.63c6.64,9.5,14.4,20.1,24.56,19.73c9.94-0.4,13.65-6.33,25.65-6.33
		c11.88,0,15.37,6.33,25.73,6.09c10.67-0.17,17.38-9.54,23.79-19.12c7.68-10.88,10.76-21.6,10.88-22.15
		C209.67,153.03,189.2,145.21,188.99,121.6L188.99,121.6z M169.42,63.64c5.35-6.68,9-15.78,7.99-25
		c-7.74,0.34-17.41,5.35-22.99,11.89c-4.93,5.76-9.33,15.2-8.2,24.08C154.92,75.26,163.84,70.22,169.42,63.64L169.42,63.64z"/>
	<g>
		<path class="st0" d="M332.95,186.2h-13.89l-7.61-23.9h-26.45l-7.25,23.9h-13.52l26.21-81.37h16.18L332.95,186.2L332.95,186.2z
			 M309.16,152.27l-6.88-21.25c-0.73-2.17-2.1-7.28-4.1-15.33h-0.24c-0.81,3.46-2.1,8.57-3.87,15.33l-6.76,21.25H309.16z
			 M400.22,156.14c0,9.98-2.71,17.87-8.13,23.66c-4.86,5.15-10.89,7.73-18.09,7.73c-7.77,0-13.36-2.77-16.76-8.32v30.79H344.2
			v-63.18c0-6.27-0.17-12.69-0.48-19.29h11.47l0.73,9.3h0.24c4.35-7.01,10.95-10.51,19.8-10.51c6.92,0,12.7,2.73,17.33,8.21
			C397.9,140,400.22,147.2,400.22,156.14L400.22,156.14z M386.94,156.61c0-5.71-1.28-10.42-3.87-14.13
			c-2.82-3.86-6.61-5.79-11.35-5.79c-3.22,0-6.14,1.08-8.75,3.2c-2.62,2.14-4.33,4.93-5.13,8.4c-0.36,1.29-0.56,2.63-0.61,3.97v9.79
			c0,4.26,1.31,7.86,3.93,10.81c2.62,2.94,6.02,4.41,10.2,4.41c4.91,0,8.73-1.9,11.47-5.67
			C385.57,167.8,386.94,162.81,386.94,156.61z M467.73,156.14c0,9.98-2.71,17.87-8.13,23.66c-4.86,5.15-10.89,7.73-18.1,7.73
			c-7.77,0-13.36-2.77-16.76-8.32v30.79H411.7v-63.18c0-6.27-0.17-12.69-0.48-19.29h11.47l0.73,9.3h0.24
			c4.34-7.01,10.94-10.51,19.8-10.51c6.92,0,12.7,2.73,17.33,8.21C465.4,140,467.73,147.2,467.73,156.14L467.73,156.14z
			 M454.44,156.61c0-5.71-1.29-10.42-3.87-14.13c-2.82-3.86-6.59-5.79-11.34-5.79c-3.22,0-6.14,1.08-8.76,3.2
			c-2.62,2.14-4.32,4.93-5.13,8.4c-0.4,1.61-0.61,2.93-0.61,3.97v9.79c0,4.26,1.31,7.86,3.92,10.81c2.62,2.93,6.02,4.41,10.21,4.41
			c4.92,0,8.74-1.9,11.47-5.67C453.07,167.8,454.44,162.81,454.44,156.61z M543.2,163.37c0,6.93-2.42,12.56-7.24,16.91
			c-5.3,4.75-12.69,7.12-22.17,7.12c-8.76,0-15.78-1.69-21.08-5.07l3.02-10.87c5.72,3.39,12,5.08,18.84,5.08
			c4.92,0,8.74-1.11,11.47-3.32c2.73-2.21,4.12-5.17,4.12-8.87c0-3.31-1.14-6.08-3.39-8.33c-2.26-2.25-5.99-4.35-11.23-6.27
			c-14.25-5.31-21.38-13.09-21.38-23.31c0-6.68,2.52-12.14,7.55-16.42c5.03-4.27,11.69-6.4,19.99-6.4c7.41,0,13.58,1.29,18.48,3.86
			l-3.27,10.63c-4.61-2.49-9.82-3.74-15.64-3.74c-4.6,0-8.21,1.13-10.79,3.38c-2.17,2.01-3.27,4.46-3.27,7.37
			c0,3.21,1.25,5.88,3.75,7.97c2.17,1.93,6.12,4.02,11.83,6.27c7.01,2.82,12.16,6.11,15.46,9.89
			C541.55,153.04,543.2,157.75,543.2,163.37L543.2,163.37z M586.43,137.3h-14.37v28.49c0,7.25,2.53,10.86,7.61,10.86
			c2.33,0,4.26-0.2,5.79-0.61l0.36,9.9c-2.57,0.96-5.95,1.44-10.14,1.44c-5.15,0-9.17-1.57-12.08-4.71
			c-2.89-3.14-4.35-8.41-4.35-15.82v-29.58h-8.56v-9.78h8.56v-10.74l12.81-3.86v14.61h14.37L586.43,137.3L586.43,137.3z
			 M651.15,156.38c0,9.02-2.58,16.42-7.73,22.21c-5.39,5.96-12.56,8.93-21.49,8.93c-8.62,0-15.48-2.86-20.59-8.56
			c-5.11-5.72-7.67-12.92-7.67-21.61c0-9.09,2.64-16.54,7.91-22.33c5.28-5.8,12.39-8.7,21.32-8.7c8.61,0,15.53,2.86,20.77,8.57
			C648.66,140.44,651.15,147.6,651.15,156.38L651.15,156.38z M637.63,156.68c0-5.37-1.16-9.99-3.49-13.84
			c-2.73-4.66-6.65-6.99-11.72-6.99c-5.22,0-9.23,2.33-11.96,6.99c-2.34,3.86-3.5,8.55-3.5,14.09c0,5.38,1.16,10,3.5,13.85
			c2.82,4.66,6.75,6.99,11.85,6.99c4.98,0,8.89-2.38,11.72-7.11C636.43,166.7,637.63,162.06,637.63,156.68L637.63,156.68z
			 M693.56,138.99c-1.36-0.24-2.73-0.37-4.11-0.36c-4.59,0-8.13,1.72-10.63,5.2c-2.17,3.06-3.25,6.92-3.25,11.59v30.79h-13.04V146
			c0.01-6.16-0.11-12.32-0.38-18.47h11.36l0.48,11.23h0.36c1.38-3.86,3.55-6.97,6.52-9.3c2.72-2.04,6.03-3.14,9.43-3.14
			c1.2,0,2.29,0.09,3.26,0.24L693.56,138.99L693.56,138.99z M751.87,154.08c0.03,1.98-0.13,3.96-0.48,5.91h-39.12
			c0.15,5.8,2.04,10.24,5.68,13.29c3.3,2.73,7.56,4.1,12.8,4.1c5.79,0,11.08-0.92,15.83-2.77l2.04,9.04
			c-5.55,2.42-12.11,3.63-19.68,3.63c-9.1,0-16.24-2.68-21.44-8.02c-5.19-5.35-7.79-12.54-7.79-21.55c0-8.84,2.42-16.21,7.25-22.09
			c5.06-6.27,11.91-9.41,20.52-9.41c8.46,0,14.86,3.14,19.21,9.41C750.14,140.6,751.87,146.76,751.87,154.08L751.87,154.08z
			 M739.44,150.7c0.09-3.87-0.76-7.2-2.53-10.02c-2.26-3.63-5.73-5.44-10.39-5.44c-4.26,0-7.74,1.77-10.38,5.31
			c-2.17,2.82-3.46,6.21-3.86,10.14L739.44,150.7L739.44,150.7z"/>
	</g>
	<g>
		<path class="st0" d="M281.25,83.12c-3.63,0-6.76-0.18-9.38-0.48V43.3c3.65-0.56,7.34-0.84,11.04-0.83
			c14.95,0,21.84,7.36,21.84,19.35C304.75,75.65,296.62,83.12,281.25,83.12z M283.44,47.51c-2.02,0-3.74,0.12-5.16,0.42v29.91
			c0.77,0.12,2.25,0.18,4.33,0.18c9.8,0,15.38-5.58,15.38-16.02C297.98,52.68,292.94,47.51,283.44,47.51z M326.21,83.42
			c-8.43,0-13.89-6.29-13.89-14.83c0-8.9,5.58-15.25,14.37-15.25c8.31,0,13.89,5.99,13.89,14.78
			C340.58,77.13,334.83,83.42,326.21,83.42L326.21,83.42z M326.46,58.02c-4.63,0-7.6,4.33-7.6,10.38c0,5.94,3.03,10.27,7.54,10.27
			c4.51,0,7.54-4.63,7.54-10.39C333.93,62.41,330.97,58.02,326.46,58.02L326.46,58.02z M388.64,53.93l-9.02,28.84h-5.88l-3.74-12.52
			c-0.93-3.06-1.7-6.17-2.32-9.31h-0.12c-0.47,3.14-1.36,6.29-2.31,9.31l-3.98,12.52h-5.94l-8.49-28.84h6.59l3.27,13.71
			c0.77,3.27,1.42,6.35,1.96,9.26h0.12c0.47-2.43,1.24-5.46,2.37-9.2l4.1-13.76h5.22l3.92,13.47c0.95,3.27,1.72,6.47,2.32,9.5h0.17
			c0.42-2.97,1.07-6.11,1.96-9.5l3.5-13.47L388.64,53.93L388.64,53.93z M421.86,82.76h-6.41V66.21c0-5.1-1.96-7.66-5.82-7.66
			c-3.8,0-6.41,3.27-6.41,7.06v17.15h-6.41V62.17c0-2.55-0.06-5.28-0.24-8.25h5.64l0.3,4.45h0.18c1.72-3.08,5.22-5.04,9.14-5.04
			c6.06,0,10.03,4.63,10.03,12.16L421.86,82.76L421.86,82.76z M439.53,82.76h-6.42V40.69h6.42V82.76z M462.9,83.42
			c-8.42,0-13.89-6.29-13.89-14.83c0-8.9,5.58-15.25,14.36-15.25c8.31,0,13.89,5.99,13.89,14.78
			C477.27,77.13,471.51,83.42,462.9,83.42L462.9,83.42z M463.14,58.02c-4.63,0-7.6,4.33-7.6,10.38c0,5.94,3.03,10.27,7.53,10.27
			c4.51,0,7.54-4.63,7.54-10.39C470.61,62.41,467.65,58.02,463.14,58.02L463.14,58.02z M502.54,82.76l-0.46-3.32h-0.17
			c-1.96,2.67-4.81,3.97-8.43,3.97c-5.17,0-8.84-3.62-8.84-8.49c0-7.12,6.17-10.8,16.86-10.8V63.6c0-3.8-2.01-5.7-5.99-5.7
			c-2.84,0-5.34,0.72-7.54,2.14l-1.3-4.21c2.67-1.66,5.99-2.49,9.9-2.49c7.54,0,11.34,3.97,11.34,11.93v10.62
			c0,2.91,0.13,5.17,0.42,6.89L502.54,82.76L502.54,82.76z M501.66,68.4c-7.12,0-10.69,1.72-10.69,5.82c0,3.03,1.84,4.51,4.4,4.51
			c3.26,0,6.29-2.49,6.29-5.87V68.4z M539.03,82.76l-0.3-4.63h-0.18c-1.84,3.5-4.94,5.28-9.26,5.28c-6.95,0-12.1-6.11-12.1-14.72
			c0-9.02,5.34-15.37,12.63-15.37c3.86,0,6.59,1.3,8.13,3.92h0.13V40.69h6.42v34.3c0,2.79,0.07,5.4,0.24,7.77L539.03,82.76
			L539.03,82.76z M538.08,65.8c0-4.04-2.67-7.48-6.75-7.48c-4.75,0-7.66,4.21-7.66,10.14c0,5.82,3.02,9.8,7.53,9.8
			c4.03,0,6.88-3.5,6.88-7.66L538.08,65.8L538.08,65.8z M585.17,83.42c-8.42,0-13.88-6.29-13.88-14.83c0-8.9,5.58-15.25,14.36-15.25
			c8.31,0,13.89,5.99,13.89,14.78C599.55,77.13,593.79,83.42,585.17,83.42L585.17,83.42z M585.41,58.02
			c-4.62,0-7.59,4.33-7.59,10.38c0,5.94,3.03,10.27,7.53,10.27c4.51,0,7.54-4.63,7.54-10.39C592.9,62.41,589.93,58.02,585.41,58.02
			L585.41,58.02z M634.01,82.76h-6.42V66.21c0-5.1-1.96-7.66-5.82-7.66c-3.8,0-6.4,3.27-6.4,7.06v17.15h-6.42V62.17
			c0-2.55-0.06-5.28-0.24-8.25h5.64l0.3,4.45h0.18c1.72-3.08,5.22-5.04,9.14-5.04c6.06,0,10.04,4.63,10.04,12.16V82.76z
			 M677.14,58.73h-7.05v14c0,3.56,1.24,5.34,3.73,5.34c1.13,0,2.08-0.12,2.84-0.3l0.18,4.87c-1.24,0.48-2.91,0.72-4.97,0.72
			c-5.05,0-8.07-2.79-8.07-10.09V58.73h-4.21v-4.81h4.21v-5.28l6.29-1.9v7.18h7.05L677.14,58.73L677.14,58.73z M711.07,82.76h-6.4
			V66.33c0-5.16-1.95-7.77-5.82-7.77c-3.32,0-6.42,2.26-6.42,6.82v17.38h-6.4V40.69h6.4v17.32h0.13c2.02-3.14,4.94-4.69,8.67-4.69
			c6.1,0,9.84,4.75,9.84,12.28L711.07,82.76L711.07,82.76z M745.84,69.89H726.6c0.12,5.46,3.74,8.54,9.09,8.54
			c2.84,0,5.46-0.48,7.77-1.36l1,4.45c-2.73,1.19-5.94,1.78-9.68,1.78c-9.02,0-14.36-5.7-14.36-14.53c0-8.84,5.47-15.49,13.64-15.49
			c7.37,0,11.99,5.46,11.99,13.71C746.1,67.96,746.03,68.93,745.84,69.89L745.84,69.89z M739.96,65.32c0-4.45-2.24-7.59-6.34-7.59
			c-3.68,0-6.59,3.2-7.01,7.59H739.96L739.96,65.32z"/>
	</g>
</g>
</svg>
