<svg width="94px"  xmlns="http://www.w3.org/2000/svg" viewBox="0 0 832 239">
<style type="text/css">
	.st0{fill:#FFFFFF;}
	.st1{fill:#010101;}
	.st2{fill:url(#SVGID_1_);}
	.st3{fill:url(#SVGID_00000078046837346619749410000017742578315205625484_);}
	.st4{fill:url(#SVGID_00000166655244527687121530000014778282678325369220_);}
	.st5{fill:url(#SVGID_00000093862075155967849910000003697891408517382805_);}
</style>
<g>
	<path class="st0" d="M832.48,215.14c0,13.22-10.72,23.95-23.95,23.95c-0.01,0-0.02,0-0.02,0H23.84
		C10.6,239.1-0.15,228.38-0.16,215.14V24.18C-0.15,10.94,10.6,0.21,23.84,0.2H808.5c13.24,0,23.98,10.73,23.98,23.97c0,0,0,0,0,0.01
		L832.48,215.14L832.48,215.14z"/>
	<path class="st1" d="M832.48,215.14c0,13.22-10.72,23.95-23.95,23.95c-0.01,0-0.02,0-0.02,0H23.84
		C10.6,239.1-0.15,228.38-0.16,215.14V24.18C-0.15,10.94,10.6,0.21,23.84,0.2H808.5c13.24,0,23.98,10.73,23.98,23.97c0,0,0,0,0,0.01
		L832.48,215.14L832.48,215.14z"/>
	<g>
		<path class="st0" d="M292.43,70.22c0,4.89-1.22,9.17-4.28,12.22c-3.67,3.67-7.94,5.5-13.45,5.5s-9.78-1.83-13.45-5.5
			s-5.5-7.94-5.5-13.45s1.83-9.78,5.5-13.45c3.67-3.67,7.94-5.5,13.45-5.5c2.44,0,4.89,0.61,7.33,1.83s4.28,2.44,5.5,4.28
			l-3.06,3.06c-2.44-3.06-5.5-4.28-9.78-4.28c-3.67,0-7.33,1.22-9.78,4.28c-3.06,2.44-4.28,6.11-4.28,10.39
			c0,4.28,1.22,7.94,4.28,10.39c3.06,2.44,6.11,4.28,9.78,4.28c4.28,0,7.33-1.22,10.39-4.28c1.83-1.83,3.06-4.28,3.06-7.33h-13.45
			v-4.89h17.72L292.43,70.22L292.43,70.22z M320.54,54.94h-16.5v11.61h15.28v4.28h-15.28v11.61h16.5v4.89h-21.39V50.66h21.39V54.94z
			 M340.71,87.33h-4.89V54.94h-10.39v-4.28h25.67v4.28h-10.39V87.33z M368.82,87.33V50.66h4.89v36.67H368.82z M394.49,87.33h-4.89
			V54.94h-10.39v-4.28h25.06v4.28h-10.39v32.39H394.49z M452.55,82.44c-3.67,3.67-7.94,5.5-13.45,5.5c-5.5,0-9.78-1.83-13.45-5.5
			s-5.5-7.94-5.5-13.45s1.83-9.78,5.5-13.45c3.67-3.67,7.94-5.5,13.45-5.5c5.5,0,9.78,1.83,13.45,5.5c3.67,3.67,5.5,7.94,5.5,13.45
			S456.21,78.77,452.55,82.44z M429.32,79.39c2.44,2.44,6.11,4.28,9.78,4.28s7.33-1.22,9.78-4.28c2.44-2.44,4.28-6.11,4.28-10.39
			s-1.22-7.94-4.28-10.39c-2.44-2.44-6.11-4.28-9.78-4.28s-7.33,1.22-9.78,4.28c-2.44,2.44-4.28,6.11-4.28,10.39
			S426.27,76.94,429.32,79.39z M464.77,87.33V50.66h5.5l17.72,28.72V50.66h4.89v36.67h-4.89l-18.95-29.95v29.95H464.77L464.77,87.33
			z"/>
		<path class="st0" d="M418.94,133.16c-14.67,0-26.28,11-26.28,26.28c0,14.67,11.61,26.28,26.28,26.28c14.67,0,26.28-11,26.28-26.28
			C445.21,143.55,433.6,133.16,418.94,133.16z M418.94,174.72c-7.94,0-14.67-6.72-14.67-15.89c0-9.17,6.72-15.89,14.67-15.89
			c7.94,0,14.67,6.11,14.67,15.89C433.6,168,426.88,174.72,418.94,174.72z M362.1,133.16c-14.67,0-26.28,11-26.28,26.28
			c0,14.67,11.61,26.28,26.28,26.28c14.67,0,26.28-11,26.28-26.28C388.38,143.55,376.77,133.16,362.1,133.16z M362.1,174.72
			c-7.94,0-14.67-6.72-14.67-15.89c0-9.17,6.72-15.89,14.67-15.89c7.94,0,14.67,6.11,14.67,15.89
			C376.77,168,370.04,174.72,362.1,174.72z M294.26,141.11v11h26.28c-0.61,6.11-3.06,11-6.11,14.06c-3.67,3.67-9.78,7.94-20.17,7.94
			c-16.5,0-28.72-12.83-28.72-29.33s12.83-29.33,28.72-29.33c8.56,0,15.28,3.67,20.17,7.94l7.94-7.94c-6.72-6.11-15.28-11-27.5-11
			c-22,0-40.95,18.33-40.95,40.34s18.95,40.34,40.95,40.34c12.22,0,20.78-3.67,28.11-11.61c7.33-7.33,9.78-17.72,9.78-25.67
			c0-2.44,0-4.89-0.61-6.72L294.26,141.11L294.26,141.11z M571.72,149.66c-2.44-6.11-8.56-16.5-22-16.5
			c-13.45,0-24.45,10.39-24.45,26.28c0,14.67,11,26.28,25.67,26.28c11.61,0,18.95-7.33,21.39-11.61l-8.56-6.11
			c-3.06,4.28-6.72,7.33-12.83,7.33s-9.78-2.44-12.83-7.94l34.84-14.67L571.72,149.66L571.72,149.66z M536.27,158.22
			c0-9.78,7.94-15.28,13.45-15.28c4.28,0,8.56,2.44,9.78,5.5L536.27,158.22L536.27,158.22z M507.55,183.28h11.61v-76.39h-11.61
			V183.28z M489.22,138.66c-3.06-3.06-7.94-6.11-14.06-6.11c-12.83,0-25.06,11.61-25.06,26.28s11.61,25.67,25.06,25.67
			c6.11,0,11-3.06,13.45-6.11h0.61v3.67c0,9.78-5.5,15.28-14.06,15.28c-6.72,0-11.61-4.89-12.83-9.17l-9.78,4.28
			c3.06,6.72,10.39,15.28,23.22,15.28c13.45,0,24.45-7.94,24.45-26.89v-46.45h-11L489.22,138.66L489.22,138.66z M475.77,174.72
			c-7.94,0-14.67-6.72-14.67-15.89s6.72-15.89,14.67-15.89s14.06,6.72,14.06,15.89S483.72,174.72,475.77,174.72z M624.89,106.88
			h-27.5v76.39H609v-28.72h15.89c12.83,0,25.06-9.17,25.06-23.83S637.72,106.88,624.89,106.88z M625.5,143.55H609v-26.28h16.5
			c8.56,0,13.45,7.33,13.45,12.83C638.34,136.83,633.45,143.55,625.5,143.55L625.5,143.55z M695.78,132.55
			c-8.56,0-17.11,3.67-20.17,11.61l10.39,4.28c2.44-4.28,6.11-5.5,10.39-5.5c6.11,0,11.61,3.67,12.22,9.78v0.61
			c-1.83-1.22-6.72-3.06-11.61-3.06c-11,0-22,6.11-22,17.11c0,10.39,9.17,17.11,18.95,17.11c7.94,0,11.61-3.67,14.67-7.33h0.61v6.11
			h11v-29.33C719.01,140.5,708.62,132.55,695.78,132.55L695.78,132.55z M694.56,174.72c-3.67,0-9.17-1.83-9.17-6.72
			c0-6.11,6.72-7.94,12.22-7.94c4.89,0,7.33,1.22,10.39,2.44C706.78,169.83,700.67,174.72,694.56,174.72z M758.73,134.38l-12.83,33
			h-0.61l-13.45-33h-12.22l20.17,46.45l-11.61,25.67h11.61l31.17-72.11H758.73L758.73,134.38z M656.06,183.28h11.61v-76.39h-11.61
			V183.28z"/>
		<g>
			<linearGradient id="SVGID_1_" gradientUnits="userSpaceOnUse" x1="122.362" y1="44.9305" x2="122.362" y2="197.0206">
				<stop  offset="0" style="stop-color:#267CAF"/>
				<stop  offset="0.286" style="stop-color:#4A92B4"/>
				<stop  offset="0.767" style="stop-color:#79BCBA"/>
				<stop  offset="1" style="stop-color:#88CEBC"/>
			</linearGradient>
			<path class="st2" d="M85.08,45.37c-1.83,1.83-2.44,4.89-2.44,8.56v135.06c0,3.67,1.22,6.72,3.06,8.56l0.61,0.61l75.78-75.78
				v-1.22L85.08,45.37z"/>
			
				<linearGradient id="SVGID_00000110455918630575299400000017265015205619701438_" gradientUnits="userSpaceOnUse" x1="201.0205" y1="103.4083" x2="182.4726" y2="145.3619">
				<stop  offset="0" style="stop-color:#F48879"/>
				<stop  offset="0.119" style="stop-color:#F5907A"/>
				<stop  offset="0.713" style="stop-color:#FBB777"/>
				<stop  offset="1" style="stop-color:#FDC874"/>
			</linearGradient>
			<path style="fill:url(#SVGID_00000110455918630575299400000017265015205619701438_);" d="M186.53,148.04l-25.06-25.06v-1.83
				l25.06-25.06l0.61,0.61l29.95,17.11c8.56,4.89,8.56,12.83,0,17.72L186.53,148.04z"/>
			
				<linearGradient id="SVGID_00000096760964344066265540000002784317394291030157_" gradientUnits="userSpaceOnUse" x1="173.4355" y1="135.3054" x2="89.9781" y2="202.797">
				<stop  offset="0" style="stop-color:#EB413D"/>
				<stop  offset="0.167" style="stop-color:#D94452"/>
				<stop  offset="0.575" style="stop-color:#AF487A"/>
				<stop  offset="0.862" style="stop-color:#954B92"/>
				<stop  offset="1" style="stop-color:#894A9C"/>
			</linearGradient>
			<path style="fill:url(#SVGID_00000096760964344066265540000002784317394291030157_);" d="M187.14,147.43l-25.67-25.67
				l-76.39,76.39c3.06,3.06,7.33,3.06,12.83,0.61L187.14,147.43"/>
			
				<linearGradient id="SVGID_00000145775892360155606680000015563038062954543543_" gradientUnits="userSpaceOnUse" x1="95.9017" y1="49.0564" x2="175.7306" y2="110.0166">
				<stop  offset="0" style="stop-color:#54C0AC"/>
				<stop  offset="1" style="stop-color:#DDE79A"/>
			</linearGradient>
			<path style="fill:url(#SVGID_00000145775892360155606680000015563038062954543543_);" d="M187.14,96.1L97.92,45.37
				c-5.5-3.06-9.78-2.44-12.83,0.61l76.39,75.78L187.14,96.1L187.14,96.1z"/>
		</g>
	</g>
</g>
</svg>
