<svg width="94px" xmlns="http://www.w3.org/2000/svg" viewBox="0 0 832 239">
<style type="text/css">
	.st0{fill:#FFFFFF;}
	.st1{fill:#010101;}
</style>
<g>
	<path class="st0" d="M832.24,215.08c0,13.22-10.72,23.95-23.95,23.95c-0.01,0-0.02,0-0.02,0H23.61
		c-13.24,0.01-23.99-10.71-24.01-23.95V24.12C-0.38,10.88,10.36,0.15,23.61,0.14h784.65c13.24,0,23.98,10.73,23.98,23.97
		c0,0,0,0,0,0.01L832.24,215.08L832.24,215.08z"/>
	<path class="st1" d="M832.24,215.08c0,13.22-10.72,23.95-23.95,23.95c-0.01,0-0.02,0-0.02,0H23.61
		c-13.24,0.01-23.99-10.71-24.01-23.95V24.12C-0.38,10.88,10.36,0.15,23.61,0.14h784.65c13.24,0,23.98,10.73,23.98,23.97
		c0,0,0,0,0,0.01L832.24,215.08L832.24,215.08z"/>
	<g>
		<path class="st0" d="M241.42,72.78l-4.6,13.94h-5.92l15.06-44.34h6.91l15.13,44.34h-6.12l-4.74-13.94H241.42z M255.96,68.3
			l-4.34-12.76c-0.99-2.9-1.64-5.52-2.3-8.09h-0.13c-0.66,2.63-1.38,5.33-2.24,8.03l-4.34,12.83H255.96z"/>
		<path class="st0" d="M275.18,54.88l6.25,17.89c1.05,2.89,1.91,5.52,2.57,8.16h0.2c0.72-2.63,1.64-5.26,2.7-8.16l6.18-17.89h6.05
			l-12.5,31.84h-5.53l-12.1-31.84H275.18z"/>
		<path class="st0" d="M321.96,86.72l-0.46-4.01h-0.2c-1.78,2.5-5.2,4.74-9.74,4.74c-6.45,0-9.73-4.54-9.73-9.14
			c0-7.7,6.84-11.91,19.14-11.84V65.8c0-2.63-0.72-7.37-7.24-7.37c-2.96,0-6.05,0.92-8.29,2.37l-1.31-3.82
			c2.63-1.71,6.45-2.83,10.46-2.83c9.73,0,12.1,6.64,12.1,13.03v11.91c0,2.76,0.13,5.46,0.53,7.63H321.96z M321.1,70.47
			c-6.31-0.13-13.48,0.99-13.48,7.17c0,3.75,2.5,5.52,5.46,5.52c4.14,0,6.77-2.63,7.7-5.33c0.2-0.59,0.33-1.25,0.33-1.84V70.47z"/>
		<path class="st0" d="M342.49,45.93c0.07,1.97-1.38,3.55-3.68,3.55c-2.04,0-3.49-1.58-3.49-3.55c0-2.04,1.51-3.62,3.62-3.62
			C341.11,42.32,342.49,43.9,342.49,45.93z M336.05,86.72V54.88h5.79v31.84H336.05z"/>
		<path class="st0" d="M351.44,40.01h5.79v46.71h-5.79V40.01z"/>
		<path class="st0" d="M384.6,86.72l-0.46-4.01h-0.2c-1.78,2.5-5.2,4.74-9.74,4.74c-6.45,0-9.73-4.54-9.73-9.14
			c0-7.7,6.84-11.91,19.14-11.84V65.8c0-2.63-0.72-7.37-7.24-7.37c-2.96,0-6.05,0.92-8.29,2.37l-1.31-3.82
			c2.63-1.71,6.45-2.83,10.46-2.83c9.73,0,12.1,6.64,12.1,13.03v11.91c0,2.76,0.13,5.46,0.53,7.63H384.6z M383.74,70.47
			c-6.31-0.13-13.48,0.99-13.48,7.17c0,3.75,2.5,5.52,5.46,5.52c4.14,0,6.77-2.63,7.7-5.33c0.2-0.59,0.33-1.25,0.33-1.84V70.47z"/>
		<path class="st0" d="M398.42,86.72c0.13-2.17,0.26-5.4,0.26-8.22V40.01h5.72v20h0.13c2.04-3.55,5.72-5.86,10.85-5.86
			c7.89,0,13.48,6.58,13.42,16.25c0,11.38-7.17,17.04-14.28,17.04c-4.6,0-8.29-1.78-10.66-5.99h-0.2l-0.26,5.26H398.42z
			 M404.41,73.96c0,0.72,0.13,1.45,0.26,2.11c1.12,4.01,4.47,6.77,8.68,6.77c6.05,0,9.67-4.93,9.67-12.23
			c0-6.38-3.29-11.84-9.47-11.84c-3.95,0-7.63,2.7-8.81,7.1c-0.13,0.66-0.33,1.45-0.33,2.37V73.96z"/>
		<path class="st0" d="M436.13,40.01h5.79v46.71h-5.79V40.01z"/>
		<path class="st0" d="M454.88,71.85c0.13,7.83,5.13,11.05,10.92,11.05c4.15,0,6.64-0.72,8.82-1.65l0.99,4.15
			c-2.04,0.92-5.52,1.97-10.59,1.97c-9.8,0-15.65-6.45-15.65-16.05c0-9.6,5.66-17.17,14.93-17.17c10.39,0,13.16,9.14,13.16,15
			c0,1.19-0.13,2.11-0.2,2.7H454.88z M471.85,67.71c0.07-3.68-1.51-9.41-8.02-9.41c-5.86,0-8.42,5.39-8.88,9.41H471.85z"/>
		<path class="st0" d="M527.38,70.54c0,11.78-8.16,16.91-15.85,16.91c-8.62,0-15.26-6.32-15.26-16.38
			c0-10.66,6.97-16.91,15.79-16.91C521.2,54.16,527.38,60.8,527.38,70.54z M502.12,70.87c0,6.97,4.01,12.24,9.67,12.24
			c5.52,0,9.67-5.2,9.67-12.37c0-5.39-2.7-12.23-9.54-12.23C505.08,58.5,502.12,64.82,502.12,70.87z"/>
		<path class="st0" d="M534.7,63.5c0-3.29-0.07-5.99-0.26-8.62h5.13l0.33,5.26h0.13c1.58-3.03,5.26-5.99,10.52-5.99
			c4.41,0,11.25,2.63,11.25,13.55v19.01h-5.79V68.37c0-5.13-1.91-9.41-7.37-9.41c-3.81,0-6.77,2.7-7.76,5.92
			c-0.26,0.72-0.39,1.71-0.39,2.7v19.14h-5.79V63.5z"/>
	</g>
	<path class="st0" d="M361.32,138.18c-6.31,0-11.14,2.9-14.49,8.7h-0.18v-7.62h-10.17v45.9h10.17v-26.18c0-3.62,1-6.61,3.01-8.99
		c2.01-2.38,4.5-4.3,7.58-4.3c5.91,0,10.53,2.43,10.35,13.6v25.87h8.69V157.1c0-6.13-1.28-10.81-3.84-14.05
		C369.89,139.8,366.18,138.18,361.32,138.18z M458.44,138.18c-7.47,0-13.41,2.17-17.82,6.5c-4.41,4.33-6.61,10.36-6.61,18.07
		c0,7.08,2.11,12.77,6.34,17.06c4.23,4.29,9.88,6.43,16.97,6.43c7.29,0,13.1-2.2,17.41-6.61c4.32-4.41,6.48-10.27,6.48-17.6
		c0-7.47-2-13.32-6.01-17.53C471.2,140.29,465.61,138.18,458.44,138.18z M467.24,173.91c-2.19,2.72-5.34,4.08-9.43,4.08
		c-4,0-7.2-1.38-9.59-4.15c-2.39-2.76-3.59-6.55-3.59-11.36c0-4.99,1.18-8.91,3.54-11.75c2.36-2.84,5.57-4.26,9.64-4.26
		c4.09,0,7.24,1.38,9.43,4.12c2.2,2.75,3.3,6.65,3.3,11.7C470.54,167.32,469.44,171.19,467.24,173.91z M417.78,143.82h-0.18
		c-2.81-4.96-7.3-5.64-13.49-5.64c-6.25,0-11.24,2.29-15,6.86c-3.75,4.57-5.63,10.66-5.63,18.25c0,7.08,1.7,12.68,5.09,16.79
		c3.39,4.11,7.91,6.17,13.56,6.17c6.96,0,12.12-1.8,15.46-7.71h0.18v6.64h10.4V117.2h-10.4V143.82z M417.91,164.26
		c0,4.12-1.15,7.54-3.44,10.26c-2.3,2.72-5.29,4.07-8.98,4.07c-3.75,0-6.74-1.4-8.96-4.21c-2.22-2.81-3.33-6.63-3.33-11.47
		c0-5.33,1.16-9.51,3.47-12.52c2.31-3.01,5.48-4.51,9.52-4.51c3.41,0,6.22,1.18,8.42,3.54c2.2,2.36,3.31,5.23,3.31,8.61V164.26z
		 M530.38,172.47c-0.38,1.52-0.61,2.84-0.67,3.94h-0.31c-0.12-1.58-0.31-2.9-0.58-3.94l-8.19-33.22h-9.7l-9.21,32.99
		c-0.39,1.43-0.62,2.78-0.71,4.03h-0.31c-0.09-1.64-0.27-2.96-0.54-3.94l-8.28-33.08h-10.68l13.39,45.9h10.59l8.99-31.2
		c0.47-1.61,0.74-2.93,0.8-3.94h0.18c0.09,1.49,0.29,2.84,0.62,4.03l8.28,31.11h10.81l13.44-45.9h-9.84L530.38,172.47z
		 M317.1,185.16h10.4v-45.9h-10.4V185.16z M291.63,168.13c-0.59,2.45-0.93,4.42-1.01,5.92h-0.18c-0.21-2.21-0.51-4.12-0.93-5.74
		l-12.01-47.43h-10.82l-12.98,47.07c-0.71,2.6-1.12,4.66-1.24,6.19h-0.22c-0.12-2.15-0.41-4.21-0.88-6.19l-11.48-47.07h-11.52
		l17.71,64.28h12.14l12.1-45.05c0.56-2.02,0.92-4.09,1.06-6.19h0.18c0.12,2.27,0.42,4.36,0.93,6.28l12.05,44.96h11.88l17.35-64.28
		l-10.86,0L291.63,168.13z M576.34,163.85c-1.02-1.06-2.25-2.01-3.7-2.85c-1.59-0.91-3.22-1.73-4.89-2.46
		c-1.38-0.51-2.6-0.98-3.66-1.41c-1.06-0.43-1.97-0.91-2.73-1.44c-0.76-0.52-1.33-1.13-1.71-1.81c-0.39-0.69-0.58-1.52-0.58-2.51
		c-0.01-0.78,0.19-1.54,0.58-2.22c0.4-0.69,0.95-1.28,1.61-1.73c0.69-0.48,1.52-0.85,2.5-1.12c0.98-0.27,2.07-0.4,3.28-0.4
		c3.85,0,7.27,1.11,10.24,3.32v-9.1c-3.09-1.29-6.58-1.93-10.49-1.93c-2.2,0-4.34,0.29-6.4,0.87c-2.06,0.58-3.91,1.45-5.53,2.6
		c-1.59,1.12-2.92,2.57-3.88,4.26c-0.96,1.69-1.44,3.64-1.44,5.85c0,1.79,0.23,3.36,0.7,4.71c0.46,1.33,1.16,2.55,2.08,3.61
		c0.92,1.06,2.08,2.01,3.47,2.85c1.51,0.9,3.07,1.69,4.69,2.38c1.27,0.51,2.54,1.02,3.82,1.52c1.14,0.45,2.13,0.96,2.97,1.52
		c0.84,0.57,1.51,1.22,2,1.95c0.5,0.73,0.74,1.62,0.74,2.67c0,3.71-2.89,5.56-8.67,5.56c-4.33,0-8.28-1.48-11.86-4.44v9.64
		c3.39,1.67,7.39,2.51,12.02,2.51c2.39,0,4.67-0.28,6.83-0.83c2.16-0.55,4.07-1.4,5.72-2.53c1.63-1.11,2.99-2.59,3.96-4.3
		c0.99-1.73,1.49-3.77,1.49-6.1c0-1.91-0.28-3.56-0.83-4.95C578.15,166.13,577.36,164.91,576.34,163.85z M322.6,118.42
		c-3.46,0-6.26,2.58-6.26,5.76c0,3.18,2.8,5.76,6.26,5.76c3.46,0,6.26-2.58,6.26-5.76C328.85,121,326.05,118.42,322.6,118.42z
		 M745.49,138.81c-2.64,0-5.21,0.86-7.32,2.44c-2.31,1.81-3.99,4.23-5.07,7.23h-0.28l-0.37-8.72h-8.83
		c0.21,4.78,0.3,9.57,0.29,14.36v31.24h10.13v-23.93c0-3.63,0.85-6.63,2.53-9c1.94-2.7,4.7-4.04,8.26-4.04
		c1.07,0,2.14,0.09,3.19,0.28h0l-0.01-9.67C747.27,138.87,746.43,138.81,745.49,138.81z M659.45,128.38l-9.95,3v8.35h-6.65v7.6h6.65
		v22.99c0,5.76,1.13,9.85,3.38,12.29c2.26,2.44,5.39,3.66,9.39,3.66c3.26,0,5.88-0.38,7.88-1.12l-0.28-7.69
		c-1.19,0.32-2.69,0.47-4.5,0.47c-3.95,0-5.91-2.81-5.91-8.44v-22.14h11.17v-7.62h-11.17V128.38z M696.45,138.82
		c-6.94,0-12.47,2.25-16.57,6.76c-4.09,4.5-6.15,10.29-6.15,17.35c0,6.75,1.99,12.35,5.96,16.79c3.97,4.43,9.3,6.65,16,6.65
		c6.94,0,12.52-2.31,16.7-6.94c4-4.5,6.01-10.25,6.01-17.26c0-6.82-1.93-12.38-5.82-16.69
		C708.52,141.04,703.15,138.82,696.45,138.82z M705.11,173.27c-2.2,3.67-5.23,5.52-9.11,5.52c-3.96,0-7.02-1.81-9.21-5.43
		c-1.82-2.99-2.72-6.58-2.72-10.76c0-4.31,0.9-7.95,2.72-10.95c2.12-3.62,5.23-5.43,9.29-5.43c3.94,0,6.98,1.81,9.11,5.43
		c1.81,3,2.71,6.58,2.71,10.76C707.91,166.59,706.97,170.2,705.11,173.27z M790.86,160.39c0-5.69-1.35-10.48-4.02-14.34
		c-3.38-4.88-8.36-7.31-14.93-7.31c-6.69,0-12.01,2.44-15.95,7.31c-3.76,4.57-5.64,10.29-5.64,17.16c0,7,2.02,12.59,6.05,16.75
		c4.04,4.15,9.59,6.23,16.66,6.23c5.88,0,10.98-0.94,15.29-2.82l-1.59-7.03c-3.69,1.44-7.8,2.15-12.3,2.15
		c-4.07,0-7.38-1.06-9.94-3.18c-2.82-2.38-4.3-5.83-4.41-10.33h30.4C790.76,163.47,790.88,161.93,790.86,160.39z M760.09,157.75
		c0.31-3.06,1.31-5.69,3-7.88c2.05-2.76,4.75-4.13,8.07-4.13c3.62,0,6.32,1.41,8.07,4.23c1.37,2.19,2.04,4.78,1.97,7.79
		L760.09,157.75z M626.15,148.95c-4.44-1.75-7.51-3.38-9.19-4.88c-1.94-1.63-2.91-3.7-2.91-6.19c0-2.26,0.86-4.17,2.54-5.73
		c2.01-1.75,4.81-2.63,8.38-2.63c4.53,0,8.57,0.97,12.15,2.91l2.54-8.26c-3.81-2-8.6-3-14.36-3c-6.45,0-11.63,1.66-15.53,4.98
		c-3.91,3.32-5.87,7.57-5.87,12.76c0,7.95,5.54,13.99,16.62,18.11c4.07,1.5,6.97,3.13,8.73,4.88c1.74,1.75,2.63,3.91,2.63,6.48
		c0,2.87-1.07,5.17-3.2,6.89c-2.12,1.72-5.09,2.58-8.91,2.58c-5.31,0-10.2-1.31-14.64-3.94l-2.34,8.44
		c4.12,2.63,9.57,3.94,16.38,3.94c7.37,0,13.11-1.85,17.23-5.54c3.74-3.38,5.62-7.76,5.62-13.14c0-4.37-1.28-8.03-3.86-10.97
		C635.6,153.7,631.6,151.15,626.15,148.95z"/>
	<g id="g18086" transform="translate(-14628.123 -100339.87) scale(4.67988)">
		<g id="bag_1_" transform="translate(2886.772 21269.267)">
			<g id="handles_1_">
				<path id="path205" class="st0" d="M266.49,183.19c-1.41,0.5-2.45,0.92-2.45,3.59v1.3l0.84-0.15v-1.11
					c-0.04-1.84,0.46-2.22,1.68-2.75C266.57,183.73,266.57,183.42,266.49,183.19z"/>
				<path id="path207" class="st0" d="M268.94,182.62c0.04,0.27,0.11,0.54,0.11,0.84c2.22-0.31,2.18,0.61,2.18,2.49v0.69l0.84-0.15
					v-0.54C272.07,183,271.61,182.2,268.94,182.62L268.94,182.62z"/>
				<path id="path209" class="st0" d="M260.26,188.85v-3.9c-0.04-2.41,1.22-3.14,3.52-3.67c3.44-0.8,3.67,1.41,3.67,2.83v3.29
					l0.84-0.15v-3.06c0-2.68-0.84-4.7-4.7-3.82c-2.06,0.46-4.17,0.99-4.17,4.51V189L260.26,188.85L260.26,188.85z"/>
			</g>
			<path id="path211" class="st0" d="M276.32,186.67l-23.25,4.66v16.9l23.25,4.66l4.63-1.68v-22.83L276.32,186.67L276.32,186.67z
				 M263.24,204.72l-5.16-0.73v-4.28h5.16V204.72L263.24,204.72z M263.24,199.06h-5.16v-3.94l5.16-0.73V199.06z M270.39,205.71
				l-6.5-0.96v-5.05h6.5V205.71z M270.39,199.06h-6.5v-4.7l6.5-0.96V199.06z"/>
		</g>
	</g>
</g>
</svg>
