<?xml version="1.0" standalone="no"?>
<!DOCTYPE svg PUBLIC "-//W3C//DTD SVG 20010904//EN"
 "http://www.w3.org/TR/2001/REC-SVG-20010904/DTD/svg10.dtd">
<svg version="1.0" xmlns="http://www.w3.org/2000/svg"
 width="700.000000pt" height="700.000000pt" viewBox="0 0 700.000000 700.000000"
 preserveAspectRatio="xMidYMid meet">
<metadata>
Created by potrace 1.14, written by Peter Selinger 2001-2017
</metadata>
<g transform="translate(0.000000,700.000000) scale(0.100000,-0.100000)"
fill="#000000" stroke="none">
<path d="M505 6984 c-184 -39 -354 -171 -434 -336 -77 -158 -71 95 -71 -3156
0 -3247 -6 -2986 71 -3141 73 -147 206 -261 379 -323 l65 -23 2953 -3 c2586
-2 2961 0 3025 13 183 37 354 169 436 335 77 158 72 -111 69 3182 -3 2841 -4
2955 -21 3008 -58 173 -178 315 -327 389 -157 77 108 71 -3150 70 -2534 -1
-2934 -3 -2995 -15z m5996 -301 c80 -39 150 -111 187 -191 l27 -57 3 -2890 c2
-2121 0 -2906 -8 -2950 -30 -159 -146 -274 -305 -305 -44 -8 -822 -10 -2950
-8 l-2890 3 -57 27 c-80 37 -152 107 -191 187 l-32 66 -3 2920 c-2 2639 -1
2925 13 2970 35 110 128 206 237 245 52 19 125 19 2978 17 l2925 -2 66 -32z"/>
<path d="M1152 6430 l-534 -5 -23 -27 -23 -26 -6 -1814 c-4 -997 -6 -2289 -4
-2870 l3 -1058 33 -32 32 -33 2861 -3 c2546 -2 2863 0 2889 13 65 34 60 -213
58 2934 l-3 2861 -33 32 -32 33 -2343 0 c-1288 0 -2582 -2 -2875 -5z m1744
-1025 c65 -19 116 -63 148 -127 25 -50 26 -58 26 -230 l0 -178 -480 0 -481 0
3 -1107 3 -1108 23 -75 c78 -251 237 -392 512 -452 104 -23 110 -23 845 -23
665 0 749 2 833 18 240 45 405 160 491 342 69 145 65 71 69 1298 l3 1107 -369
0 c-406 0 -436 4 -504 60 -20 16 -48 53 -62 82 -25 50 -26 58 -26 230 l0 179
648 -3 c598 -3 650 -4 687 -21 50 -23 100 -70 128 -122 l22 -40 0 -1295 c0
-1027 -3 -1312 -13 -1379 -58 -368 -252 -648 -560 -809 -179 -93 -372 -143
-633 -161 -184 -14 -1275 -14 -1434 -1 -239 20 -406 61 -571 139 -134 64 -213
118 -305 210 -175 176 -275 395 -309 681 -14 120 -14 2561 1 2615 22 83 97
155 182 175 18 5 266 8 553 9 431 1 529 -2 570 -14z"/>
</g>
</svg>
