<svg width="47px" xmlns="http://www.w3.org/2000/svg" viewBox="0 0 46.7 66.7">
<style>
.stroke {
	fill:none;
	stroke:#FFF;
	stroke-width:2.2;
	stroke-miterlimit:10;
}
.round {
	stroke-linecap:round;
	stroke-linejoin:round;
}
</style>
<path class="stroke" d="M43.5,59.9H29.9c-1.2,0-2.2-1-2.2-2.2V34.3c0-1.2,1-2.2,2.2-2.2h13.6c1.2,0,2.2,1,2.2,2.2v23.4C45.7,58.9,44.7,59.9,43.5,59.9z"/>
<circle class="stroke" cx="13.1" cy="23.1" r="3.9"/>
<path class="stroke" d="M13.1,19.2v-6c0,0-0.7-12.2,12-12.2c11.6,0,11.4,11.5,11.4,11.5v19.6"/>
<line class="stroke round" x1="10.4" y1="37.5" x2="10.4" y2="54.9"/>
<path class="stroke round" d="M17.5,14.8c0,0,7.6,2.3,7.6,11.2c0,7.8-6.3,10.5-6.3,10.5v5.4l-3.7,3.2l3.5,3.6l-4.1,4.1l4,3.5l0.1,4.4l-5.5,5l-7.3-7.6l0-22.4c0,0-4.9-2.1-4.9-9.8C1,17,8.6,14.8,8.6,14.8"/>
</svg>
