<svg width="61px" xmlns="http://www.w3.org/2000/svg" viewBox="0 0 59.3 56.7">
<style>
.stroke {
	fill:none;
	stroke:#FFF;
	stroke-width:2.2;
	stroke-miterlimit:10;
}
.round {
	stroke-linecap:round;
	stroke-linejoin:round;
}
</style>
<path class="stroke round" d="M42.5,22.1H16.7V17c0-5.3,4.3-9.6,9.6-9.6h6.6c5.3,0,9.6,4.3,9.6,9.6V22.1z"/>
<circle class="stroke" cx="14.6" cy="33.6" r="5.5"/>
<circle class="stroke" cx="44.8" cy="33.6" r="5.5"/>
<path class="stroke round" d="M9.8,23.7v-8.1C9.8,7.6,16.4,1,24.5,1h10.3c8.1,0,14.7,6.6,14.7,14.7c0,0,0,8.1,0,8.1h3.2c3.1,0,5.6,2.5,5.6,5.6v9.5c0,3.1-2.5,5.6-5.6,5.6H6.6c-3.1,0-5.6-2.5-5.6-5.6v-9.5c0-3.1,2.5-5.6,5.6-5.6L9.8,23.7L9.8,23.7z"/>
<path class="stroke" d="M20.5,44.4V52c0,2.1-1.7,3.7-3.7,3.7h-3.2c-2.1,0-3.7-1.7-3.7-3.7v-7.6"/>
<path class="stroke" d="M49.7,44.4V52c0,2.1-1.7,3.7-3.7,3.7h-3.2c-2.1,0-3.7-1.7-3.7-3.7v-7.6"/>
</svg>
