<svg width="53px" xmlns="http://www.w3.org/2000/svg" viewBox="0 0 51.7 58.4">
<style>
.stroke {
	fill:none;
	stroke:#FFF;
	stroke-width:2.2;
	stroke-miterlimit:10;
}
.round {
	stroke-linecap:round;
	stroke-linejoin:round;
}
.color {
	fill:#FFF;
}
</style>
<path class="stroke" d="M46.1,57.4H5.6c-2.5,0-4.6-2.1-4.6-4.6V5.6C1,3.1,3.1,1,5.6,1h40.5c2.5,0,4.6,2.1,4.6,4.6v47.2C50.7,55.4,48.6,57.4,46.1,57.4z"/>
<line class="stroke" x1="1" y1="45.8" x2="50.7" y2="45.8"/>
<circle class="color" cx="18.5" cy="51.4" r="1.7"/>
<circle class="color" cx="26.4" cy="51.4" r="1.7"/>
<circle class="color" cx="34.1" cy="51.4" r="1.7"/>
<circle class="color" cx="14.4" cy="10.5" r="1.4"/>
<circle class="color" cx="39.3" cy="27.4" r="2.4"/>
<path class="stroke round" d="M19.2,10.6c0,2.6-4.8,11.6-4.8,11.6s-4.8-9-4.8-11.6s2.1-4.8,4.8-4.8S19.2,7.9,19.2,10.6z"/>
<path class="stroke round" d="M45.4,27.4c0,3.4-5.8,13.7-5.8,13.7s-6.4-10.4-6.4-13.7s2.7-6.1,6.1-6.1C42.7,21.3,45.4,24,45.4,27.4z"/>
</svg>
