<svg width="66px" xmlns="http://www.w3.org/2000/svg" viewBox="-296.8 420.5 63.6 56.7">
<style>
.stroke {
	fill:none;
	stroke:#FFF;
	stroke-width:2.2;
	stroke-miterlimit:10;
}
.round {
	stroke-linecap:round;
	stroke-linejoin:round;
}
.color {
	fill:#FFF;
}
</style>
<path class="stroke round" d="M-234.3,436.1c0,8.1-9.6,14.1-18.1,14.5c-0.5,0-3.2,2.7-6.5,4.6c-3.7,2.1-7.3,3.2-7.3,3.2s1.6-1.8,3.3-4c1.6-2,2.9-4.3,2.4-4.4c-8.3-1.8-14.7-7.4-14.7-14c0-8,9.1-14.5,20.4-14.5C-243.5,421.5-234.3,428-234.3,436.1z"/>
<path class="color" d="M-265.7,440.2l0.3-0.3c2-2,3.2-3.3,3.2-5.1c0-1.3-0.8-2.9-3-2.9c-1.4,0-2.3,0.6-2.8,1l-0.2,0.1l0.8,1.3l0.2-0.2c0.4-0.4,1-0.7,1.7-0.7c1,0,1.6,0.5,1.6,1.5c0,1.3-1.1,2.5-3.3,4.6l-1.1,1v1.2h6.4v-1.5H-265.7z"/>
<path class="color" d="M-255.1,437.8v-5.7h-1.7l-4.2,6v1.1h4.2v2.6h1.7v-2.5h1.3v-1.5H-255.1z M-259.1,437.8l1.9-2.7c0.1-0.2,0.2-0.3,0.4-0.5v3.2H-259.1z"/>
<polygon class="color" points="-249.5,431.6 -253.6,442.3 -252,442.3 -247.9,431.6 "/>
<polygon class="color" points="-247.3,432.1 -247.3,433.6 -243,433.6 -247,441.7 -245.1,441.7 -241.1,433.3 -241,432.1 "/>
<path class="stroke" d="M-271.5,463l-2.6,4.1c-0.5,0.8-1.4,1.2-2.3,1.1h-0.4c-0.2,0-0.4,0-0.5-0.1c-4.7-1.4-8.5-5.1-10-9.7c0-0.1-0.1-0.3-0.1-0.4l0,0c-0.2-0.9,0.2-1.9,1-2.4l3.8-2.9c0.9-0.7,1.3-2,0.8-3.1c-1.4-2.9-4.5-7.9-9.2-6.6c-7.2,2-6.1,19.1,3.5,27.2c10.6,8.9,25.7,6.9,26.5,0.5c0.6-4.9-4.5-7.6-7.4-8.7C-269.7,461.6-270.9,462-271.5,463z"/>
</svg>
