<svg width="57px" xmlns="http://www.w3.org/2000/svg" viewBox="0 0 56.3 58.6">
<style>
.stroke {
	fill:none;
	stroke:#FFF;
	stroke-width:2.2;
	stroke-miterlimit:10;
}
.round {
	stroke-linecap:round;
	stroke-linejoin:round;
}
</style>
<path class="stroke" d="M55.3,17.8v35.7c0,2.3-1.9,4.2-4.2,4.2h-46c-2.3,0-4.2-1.9-4.2-4.2V17.8"/>
<path class="stroke round" d="M48,6.1h3.2c2.3,0,4.2,1.9,4.2,4.2v7.5"/>
<path class="stroke round" d="M8.3,6.1H5.1C2.8,6.1,1,7.9,1,10.2v7.5"/>
<line class="stroke" x1="55.3" y1="17.8" x2="1" y2="17.8"/>
<line class="stroke round" x1="13.8" y1="1" x2="13.8" y2="9"/>
<line class="stroke round" x1="23.3" y1="1" x2="23.3" y2="9"/>
<line class="stroke round" x1="32.8" y1="1" x2="32.8" y2="9"/>
<line class="stroke round" x1="42.4" y1="1" x2="42.4" y2="9"/>
<path fill="#FFF" d="M11.2,49.1v-2l2.6-2.5c6.1-5.8,8.9-9,9-12.6c0-2.4-1.2-4.7-4.8-4.7c-2.2,0-4,1.1-5.1,2l-1-2.3c1.7-1.4,4-2.4,6.8-2.4c5.2,0,7.4,3.6,7.4,7c0,4.4-3.2,8-8.3,12.9l-1.9,1.8v0.1h10.8v2.7H11.2z"/>
<path fill="#FFF" d="M44.6,27.8h-9.2l-0.9,6.2c0.6-0.1,1.1-0.1,2-0.1c1.9,0,3.7,0.4,5.2,1.3c1.9,1.1,3.4,3.1,3.4,6.2c0,4.7-3.7,8.2-9,8.2c-2.6,0-4.8-0.7-6-1.5l0.8-2.5c1,0.6,3,1.3,5.1,1.3c3.1,0,5.7-2,5.7-5.2c0-3.1-2.1-5.3-6.9-5.3c-1.4,0-2.4,0.1-3.3,0.3L33.1,25h11.5V27.8z"/>
</svg>
