<svg width="67px" xmlns="http://www.w3.org/2000/svg" viewBox="0 0 66 44.7">
<style>
.stroke {
	fill:none;
	stroke:#FFF;
	stroke-width:2.2;
	stroke-miterlimit:10;
}
</style>
<line class="stroke" x1="1" y1="23.5" x2="39.4" y2="23.5"/>
<line class="stroke" x1="1" y1="30.1" x2="39.4" y2="30.1"/>
<circle fill="#FFF" cx="54.3" cy="20.4" r="2.1"/>
<path class="stroke" d="M39.4,39.8h11.1c5.3,0,9.6-4.3,9.6-9.6v-3.3"/>
<path class="stroke" d="M35.1,17.6H16.3H5.3c-2.3,0-4.3,1.9-4.3,4.3v17.6c0,2.3,1.9,4.3,4.3,4.3h29.9c2.2,0,4-1.7,4.2-3.9c0-0.1,0-0.3,0-0.4V21.9C39.4,19.5,37.5,17.6,35.1,17.6z"/>
<path class="stroke" d="M60.1,14v-3.3c0-5.3-4.3-9.6-9.6-9.6H26c-5.3,0-9.6,4.3-9.6,9.6v7"/>
<path class="stroke" d="M63.2,14h-3.1h-9.5c-1,0-1.8,0.8-1.8,1.8v9.3c0,1,0.8,1.8,1.8,1.8h9.5h3.1c1,0,1.8-0.8,1.8-1.8v-9.3C65,14.8,64.2,14,63.2,14z"/>
</svg>
