<svg width="61px" xmlns="http://www.w3.org/2000/svg" viewBox="0 0 60.1 37.1">
<style>
.stroke {
	fill:none;
	stroke:#FFF;
	stroke-width:2.2;
	stroke-miterlimit:10;
}
.round {
	stroke-linecap:round;
	stroke-linejoin:round;
}
</style>
<path class="stroke" d="M54.1,5.8V3c0-1.1-0.9-2-2-2H3C1.9,1,1,1.9,1,3v26.4c0,1.1,0.9,2,2,2h3.1v2.9c0,1.1,0.9,2,2,2h49.1c1.1,0,2-0.9,2-2V7.8c0-1.1-0.9-2-2-2H54.1h-46c-1.1,0-2,0.9-2,2v23.5"/>
<ellipse class="stroke" cx="32.6" cy="21" rx="8" ry="10.3"/>
<path class="stroke round" d="M25.5,32.1h-8.7c0,0-0.1-2.5-2.1-4.5c-2.1-2-4.3-2-4.3-2v-4.6v-0.2v-4.6c0,0,2.2,0,4.3-2c2-2,2.1-4.5,2.1-4.5h8.7"/>
<path class="stroke round" d="M39.8,32.1h8.7c0,0,0.1-2.5,2.1-4.5c2.1-2,4.3-2,4.3-2v-4.6v-0.2v-4.6c0,0-2.2,0-4.3-2c-2-2-2.1-4.5-2.1-4.5h-8.7"/>
</svg>
